<mxfile host="Electron" modified="2024-05-15T06:18:11.901Z" agent="Mozilla/5.0 (Windows NT 10.0; Win64; x64) AppleWebKit/537.36 (KHTML, like Gecko) draw.io/24.2.5 Chrome/120.0.6099.109 Electron/28.1.0 Safari/537.36" etag="tbG_7zIxRnbG6r3LC0JH" version="24.2.5" type="device">
  <diagram name="第 1 页" id="VX8x2q7U5yT6BQhmhuAg">
    <mxGraphModel dx="1" dy="62" grid="1" gridSize="3.937" guides="1" tooltips="1" connect="1" arrows="1" fold="1" page="1" pageScale="1" pageWidth="48" pageHeight="48" background="#464647" math="0" shadow="0">
      <root>
        <mxCell id="0" />
        <mxCell id="1" parent="0" />
        <mxCell id="hls-HvIjujg9CEYYXCDJ-2" value="1" style="strokeWidth=1;shadow=0;dashed=0;align=left;html=1;shape=mxgraph.mockup.misc.ruler2;dx=14.432;rulerOrient=up;unitSize=10;fontColor=#E6E6E6;spacingLeft=10.432;align=left;verticalAlign=middle;spacingBottom=0;spacingTop=10;spacingRight=0;spacing=0;strokeColor=#E6E6E6;fillColor=none;" vertex="1" parent="1">
          <mxGeometry x="98.43" y="11.81" width="39.38" height="23.62" as="geometry" />
        </mxCell>
      </root>
    </mxGraphModel>
  </diagram>
</mxfile>
